<?xml version="1.0" encoding="UTF-8"?>
<svg id="Warstwa_1" xmlns="http://www.w3.org/2000/svg" version="1.1" viewBox="0 0 42.29 38.28">
  <!-- Generator: Adobe Illustrator 30.3.0, SVG Export Plug-In . SVG Version: 2.1.3 Build 182)  -->
  <defs>
    <style>
      .st0 {
        fill: #bc9b59;
      }
    </style>
  </defs>
  <path class="st0" d="M36.83,16.58h-.02s.01,0,.02,0c.25,1.43.33,2.92.22,4.45-.61,8.81-7.52,16.1-16.3,17.12C9.55,39.45,0,30.69,0,19.73,0,9.5,8.32,1.18,18.55,1.18c4.24,0,8.15,1.42,11.28,3.83.51.39.42,1.19-.17,1.47l-5,2.32c-.24.11-.51.1-.74-.02-2.19-1.08-4.76-1.53-7.43-1.08-5.35.9-9.53,5.38-10.07,10.78-.72,7.28,5,13.43,12.13,13.43,3.93,0,7.42-1.86,9.66-4.75,4.73-6.51-5.9-12.97-9.51-5.8h0C18.18,9.81,39,12.89,40.43,0h0c3.6,5.24,1.75,13.38-3.6,16.58Z"/>
</svg>